<svg height="16" viewBox="0.038 0.077 15.885 15.923" width="16" xmlns="http://www.w3.org/2000/svg"><path d="m0 0h16v16h-16z" fill="none"/><path d="M 1.947 9.596 L 8 3.733 L 14.054 9.596 L 15.92 7.789 L 8 0.119 L 0.08 7.789 L 1.947 9.596 Z M 7.773 6.731 L 8.227 6.731 L 8.557 7.05 L 7.443 7.05 L 7.773 6.731 Z M 7.113 7.37 L 8.887 7.37 L 9.217 7.689 L 6.783 7.689 L 7.113 7.37 Z M 6.453 8.009 L 9.547 8.009 L 9.877 8.329 L 6.123 8.329 L 6.453 8.009 Z M 5.793 8.648 L 10.207 8.648 L 10.537 8.967 L 5.463 8.967 L 5.793 8.648 Z M 5.133 9.287 L 10.867 9.287 L 11.197 9.606 L 4.803 9.606 L 5.133 9.287 Z M 4.473 9.927 L 11.527 9.927 L 11.857 10.246 L 8.124 10.246 L 8 10.126 L 7.875 10.246 L 4.143 10.246 L 4.473 9.927 Z M 8.454 10.565 L 12.187 10.565 L 12.517 10.885 L 8.784 10.885 L 8.454 10.565 Z M 3.813 10.565 L 7.546 10.565 L 7.216 10.885 L 3.483 10.885 L 3.813 10.565 Z M 9.115 11.204 L 12.847 11.204 L 13.177 11.525 L 9.444 11.525 L 9.115 11.204 Z M 3.153 11.204 L 6.886 11.204 L 6.556 11.525 L 2.823 11.525 L 3.153 11.204 Z M 9.774 11.845 L 13.507 11.845 L 13.837 12.164 L 10.104 12.164 L 9.774 11.845 Z M 2.493 11.845 L 6.225 11.845 L 5.896 12.164 L 2.163 12.164 L 2.493 11.845 Z M 10.434 12.484 L 14.167 12.484 L 14.497 12.803 L 10.765 12.803 L 10.434 12.484 Z M 1.833 12.484 L 5.566 12.484 L 5.236 12.803 L 1.503 12.803 L 1.833 12.484 Z M 11.094 13.122 L 14.827 13.122 L 15.157 13.442 L 11.424 13.442 L 11.094 13.122 Z M 1.173 13.122 L 4.906 13.122 L 4.575 13.442 L 0.843 13.442 L 1.173 13.122 Z M 11.754 13.761 L 15.487 13.761 L 15.817 14.082 L 12.084 14.082 L 11.754 13.761 Z M 0.513 13.761 L 4.246 13.761 L 3.916 14.082 L 0.183 14.082 L 0.513 13.761 Z M 12.415 14.401 L 15.693 14.401 L 15.363 14.72 L 12.744 14.72 L 12.415 14.401 Z M 0.307 14.401 L 3.586 14.401 L 3.256 14.72 L 0.637 14.72 L 0.307 14.401 Z M 13.074 15.04 L 15.033 15.04 L 14.714 15.349 L 13.393 15.349 L 13.074 15.04 Z M 0.967 15.04 L 2.925 15.04 L 2.607 15.349 L 1.286 15.349 L 0.967 15.04 Z M 13.724 15.67 L 14.384 15.67 L 14.054 15.989 L 13.724 15.67 Z M 1.617 15.67 L 2.276 15.67 L 1.947 15.989 L 1.617 15.67 Z"/></svg>