<svg height="16" viewBox="0 0 16 16" width="16" xmlns="http://www.w3.org/2000/svg"><path d="m0 0h16v16h-16z" fill="none"/><path d="m3.414 9.414 4.586-4.586 4.586 4.586 1.414-1.414-6-6-6 6zm4.414-2.242h.344l.25.25h-.844zm-.5.5h1.344l.25.25h-1.844zm-.5.5h2.344l.25.25h-2.844zm-.5.5h3.344l.25.25h-3.844zm-.5.5h4.344l.25.25h-4.844zm-.5.5h5.344l.25.25h-2.828l-.094-.094-.094.094h-2.828zm3.016.5h2.828l.25.25h-2.828zm-3.516 0h2.828l-.25.25h-2.828zm4.016.5h2.828l.25.25h-2.828zm-4.516 0h2.828l-.25.25h-2.828zm5.016.5h2.828l.25.25h-2.828zm-5.516 0h2.828l-.25.25h-2.828zm6.016.5h2.828l.25.25h-2.828zm-6.516 0h2.828l-.25.25h-2.828zm7.016.5h2.828l.25.25h-2.828zm-7.516 0h2.828l-.25.25h-2.828zm8.016.5h2.828l.25.25h-2.828zm-8.516 0h2.828l-.25.25h-2.828zm9.016.5h2.484l-.25.25h-1.984zm-9.172 0h2.484l-.25.25h-1.984zm9.672.5h1.484l-.242.242h-1zm-9.172 0h1.484l-.242.242h-1zm9.664.492h.5l-.25.25zm-9.172 0h.5l-.25.25z"/></svg>